<?xml version="1.0" encoding="UTF-8"?>
<svg id="Layer_2" data-name="Layer 2" xmlns="http://www.w3.org/2000/svg" viewBox="0 0 67.66 35.52">
  <defs>
    <style>
      .cls-1 {
        fill: #fff;
      }
    </style>
  </defs>
  <g id="Layer_1-2" data-name="Layer 1">
    <path class="cls-1" d="M11.16.03c.05.05.13,1.26.09,1.46-.02.07-.61.73-.76.86-.07.06-.26-.03-.33.02-1.02.91-1.89,2.31-2.9,3.28l2.22,1.66c1.21-.22,2.53-.2,2.2,1.33-.01.06-.71.84-.76.86-.64.23-1.16-.38-1.67-.55-.26-.09-.9-.08-1.32-.24-.35-.14-1.62-1.14-1.85-.86-.05.06.14.53-.1.98-.1.19-.43.38-.46.52-.16.75.23,5.14.38,6.17.34,2.36.42,4.51.76,7.13.14,1.07.87,3.5.93,4.51,0,.11-.29.22-.31.34-.1.91.24,1.22.92,1.74,2.59.07,5.61-.65,8.13-.5,2.84.17,6.3-.6,9.45-.25.04,0,.6.56.83.27.07-.08-.05-1.85-.13-2.11-.29-1,.09-1.26-.12-1.95-1.39-4.64-1.76-9.79-.9-14.62-.31-.59.48-2.47.16-2.78-.29-.27-.75.36-.95.55-1.26,1.19-1.8,1.67-2.75,3.1-.11.17-.69.84-.76.86-1.1.38-1.79.16-1.53-1.05.05-.21,2.69-3.2,2.9-3.28s.45.03.65-.04c.1-.03,1.35-1.45,1.37-1.55.09-.39-1.22-1.43-1.57-1.7-.19-.15-1.55-1.12-1.71-1.2-.26-.12-.66.36-.54-.78.1-.87.83-1.15,1.59-.75.18.1.33.35.52.46.9.53,1.82,1.26,2.72,1.79.22.13.59.62.69.61.14,0,1.46-1.76,1.83-2.07.06-.05.25.04.33-.02.21-.16.46-.64.61-.69.31-.11.72.12.96-.38.19.41.8.24.83.27.42.39-.18,1.62-.69,2-.14.1-.83.29-.96.38-.22.16-1.69,1.77-1.68,1.9.01.25,2.61,1.34,2.89,1.94.73-.08,1.04.73.9,1.41-.36,1.74-3.86-1.41-3.99-1.22-.08.11.11.82.07,1.14-.26,1.89-.27,4.04-.62,5.91-.34,1.85.38,4.23.7,6.15.42,2.48.44,4.14,1.05,6.46.08.3-.01,1.06.07,1.14.14.12,3.08-.24,3.74-.23,1.76.01,3.2.38,4.9.03.53-.11,2.66-.05,2.77-.17.05-.06-.09-.31-.03-.49.07-.2.57-.89.59-1.01.1-.65-.14-4.17-.3-4.87-.4-1.72-.46-2.41-.28-4.55.18-2.05-1.46-4.91-1.07-6.78.09-.43-.31-.48-.37-.63-.23-.61.19-.77.27-.99.06-.18-.08-.43-.03-.49.06-.06.59.02.65-.04.04-.05.12-.91.26-1.16.46-.87,1-.99,1.72-1.25.21-.07.99-1.24,1.55-1.4.39-.11,3.55-.31,3.9-.24.08.02,1.09.91,1.21,1.07.05.07-.04.24.02.32.42.62.91,1.07.77,1.91-.02.13-.28.21-.31.34-.05.21.1.47.04.65-.04.13-.25.21-.31.34-.04.1.06.25.02.32-.12.23-1.14,1.38-1.37,1.55-.07.05-.24-.04-.33.02-.2.14-.83.68-.94.71-.57.16-3.59.33-4.23.26-.04,0-.58-.56-.83-.27-.25.28.37.75.38.79.14.58,0,1.34.12,1.95.77,4.05.94,7.38.72,11.69-.02.36.05,2.04.13,2.11.1.09,2.23-.18,2.77-.17.99.02,2.25.41,3.6.11,3.2-.74,7.33-.74,11-1.65.93-.23,1.56.25,2.46.18-.17-.8.43-1.33.2-2.13-.66-2.22-1.74-7.03-1.25-9.7.14-.75.45-2.28.47-2.96.01-.4-.07-2.66-.17-2.76-.24-.26-1.76,1.51-2.01,1.75-.05.05-.25-.04-.33.02-.51.44-.95,1.61-1.2,1.7-.49.18-1.4-.39-1.51-.72-.1-.28.45-1.31.72-1.51.5-.36,1.46-1.03,1.87-1.42.23-.22,1.35-1.44,1.37-1.55.1-.4-.33-.57-.54-.78-.49-.5-1.17-1.09-1.73-1.52-.06-.05-.25.07-.33.02-.69-.49-1.46-1.11-1.27-2.04.03-.16,1.02-.88,1.09-.88.22-.01,2.91,2.5,3.28,2.9.05.05-.04.24.02.32.22.3,1.26.81,1.51.72.22-.07,1.44-1.69,1.83-2.07.06-.06.26.04.33-.02.69-.64,1.03-1.68,2.2-1.44.91.19.27,1.6-.21,1.97-.59.33-1.36.98-1.87,1.42-1.83,1.56.5,1.71,1.48,2.84.41.1.98.37,1.34.57.4.22.67.64.56,1.11-.04.16-1.02.88-1.09.88-.11,0-.47-.5-.69-.61-.4-.2-1.32-.35-1.67-.55-.29-.17-1.19-1.29-1.52-.88-.18.22.4,3.35.25,4.06-.04.18-.57.51-.61.69-.55,2.61,1.3,7.09.88,9.07-.04.21.75,2.22.81,2.56.15.87.47,4.88.34,5.52-.12.57-.84.45-1.11.56-1,.39-1.27.28-2.26.46-1.12.21-2.18.56-3.56.54-6.06-.08-13.03,1.27-19.23.53-.56-.07-4.38.45-4.86.62-.5.19-4.85-.53-5.57-.31-5.2,1.55-11.38.15-16.57,1.34-.45.1-1.04.29-1.61.42-.4.1-2.27.23-2.6.16-.06-.01-.84-.71-.86-.76-.32-.92-.06-3.05-.26-4.22-.49-2.87-.31-6.23-.9-9.4-.48-2.55-.3-6.39-1.21-9.05-.03-.08.18-1.31.23-1.64.07-.49.35-.68.26-1.16-.67.21-1.57,1.92-2,2.08-.38.14-1.05-.07-1.17-.42-.29-.81.59-.99.55-1.66.68-.68,1.09-1.51,2-1.92.28-.13.17-.62.12-.66-.09-.08-.57.23-.66-.12-.05-.19.02-.45-.03-.49-.07-.06-.57.1-.81.05-.22-.04-.59-.18-1-.26-.18-.04-1.31-1.07-1.23-1.39.05-.21.79-.97,1.09-.88,1.19.84,2.75.84,4.02,1.71.3-.02,3.25-3.89,3.97-4.48.08-.07.55-.37.78-.54.24-.17,1.17-.35,1.29-.24Z"/>
  </g>
</svg>